# xmcd
#
# Track frame offsets: 
#        150
#        11314
#        22958
#        33220
#        42954
#        55615
#        66151
#        77307
#        87742
#        99089
#        109338
#        120283
#        130065
#        140169
#        151790
#        165416
#        178406
#        190265
#
# Disc length: 2744 seconds
#
# Revision: 2
# Processed by: cddbd v1.5.2PL0 Copyright (c) Steve Scherf et al.
# Submitted via: ExactAudioCopyFreeDBPlugin 1.0
#
DISCID=d80ab612
DTITLE=Patsy Cline - Real Gone Music - Three Classic Albums plus Bonus
DTITLE=Singles - CD4-4
DYEAR=2013
DGENRE=Country
TTITLE0=Just out of a reach  (1958)
TTITLE1=Never no more  (1958)
TTITLE2=He will do for you  (1958)
TTITLE3=I'm blue again  (1959)
TTITLE4=Yes I understand  (1959)
TTITLE5=Gotta lot of rhythm in my soul  (1959)
TTITLE6=Cry not for me  (1959)
TTITLE7=Lovesick blues  (1960)
TTITLE8=Crazy dreams  (1960)
TTITLE9=How can I face tomorrow  (1960)
TTITLE10=There he goes  (1960)
TTITLE11=Lovin' in vain  (1961)
TTITLE12=Who can I count on  (1961)
TTITLE13=When I get thru with you  (1962)
TTITLE14=So wrong  (1962)
TTITLE15=Imagine that  (1962)
TTITLE16=You're stronger than me (1962)
TTITLE17=Why can't he be you  (1962)
EXTD=
EXTT0=
EXTT1=
EXTT2=
EXTT3=
EXTT4=
EXTT5=
EXTT6=
EXTT7=
EXTT8=
EXTT9=
EXTT10=
EXTT11=
EXTT12=
EXTT13=
EXTT14=
EXTT15=
EXTT16=
EXTT17=
PLAYORDER=
